<?xml version="1.0" standalone="no"?>
<!DOCTYPE svg PUBLIC "-//W3C//DTD SVG 20010904//EN"
 "https://www.w3.org/TR/2001/REC-SVG-20010904/DTD/svg10.dtd">
<svg version="1.0" xmlns="https://www.w3.org/2000/svg"
 width="800.000000pt" height="800.000000pt" viewBox="0 0 800.000000 800.000000"
 preserveAspectRatio="xMidYMid meet">
<metadata>
Created by potrace 1.14, written by Peter Selinger 2001-2017
</metadata>
<g transform="translate(0.000000,800.000000) scale(0.100000,-0.100000)"
fill="#000000" stroke="none">
<path d="M800 7990 c-13 -9 -13 -10 0 -11 8 0 3 -5 -12 -11 -16 -5 -28 -16
-28 -24 0 -8 -5 -14 -11 -14 -5 0 -8 4 -4 9 3 5 1 12 -5 16 -9 6 -12 2 -14
-27 -1 -7 -19 -25 -41 -39 -49 -32 -78 -66 -69 -81 4 -7 3 -8 -4 -4 -7 4 -12
1 -12 -7 0 -8 -14 -20 -31 -26 -17 -6 -28 -15 -24 -21 4 -6 3 -10 -2 -9 -21 4
-31 -3 -36 -21 -3 -11 -13 -23 -24 -27 -26 -10 -41 -33 -35 -56 3 -14 1 -18
-7 -13 -14 9 -39 -15 -33 -32 2 -6 -1 -12 -8 -12 -6 0 -8 -5 -4 -12 5 -8 0 -7
-11 2 -11 9 -16 10 -11 3 4 -8 2 -13 -5 -13 -7 0 -9 -3 -6 -6 4 -4 -2 -14 -12
-23 -10 -9 -21 -25 -25 -37 -3 -11 -20 -35 -37 -52 -17 -17 -28 -36 -25 -41 4
-6 -4 -15 -16 -22 -32 -17 -73 -61 -73 -79 0 -8 -10 -19 -22 -25 -13 -5 -23
-15 -23 -22 0 -7 -5 -13 -11 -13 -5 0 -7 -4 -4 -10 3 -5 -1 -10 -9 -10 -9 0
-15 -3 -14 -7 5 -19 -15 -51 -37 -61 -14 -7 -28 -19 -31 -27 -4 -8 -10 -12
-15 -9 -5 3 -9 -1024 -9 -2450 l0 -2456 72 -117 c87 -142 254 -381 363 -518
94 -118 364 -392 485 -492 174 -143 349 -270 580 -418 41 -26 98 -63 125 -80
200 -130 525 -281 819 -381 302 -103 375 -125 586 -176 94 -22 100 -23 950
-26 l854 -3 126 31 c69 17 157 42 195 55 86 29 311 109 345 123 14 6 70 28
125 48 336 127 692 362 976 644 107 107 226 238 279 310 69 92 201 309 246
407 48 100 121 333 153 483 39 188 53 503 30 707 -25 223 -135 584 -234 768
-95 175 -153 273 -202 342 -88 123 -262 321 -350 399 -43 38 -80 72 -83 75 -8
11 -180 132 -255 181 -267 173 -697 310 -1067 338 -186 14 -435 12 -553 -5
-469 -66 -845 -175 -1090 -318 -236 -137 -386 -248 -549 -406 -426 -416 -642
-849 -762 -1531 -25 -142 -28 -177 -28 -425 -1 -307 4 -344 79 -573 50 -150
167 -397 247 -517 62 -94 266 -302 381 -387 86 -63 304 -189 419 -242 160 -74
392 -134 599 -157 119 -13 315 -6 463 16 268 41 559 192 771 400 147 144 217
239 290 390 75 154 99 227 120 355 28 175 30 320 6 452 -34 186 -68 273 -166
422 -167 258 -388 429 -667 520 -316 102 -724 81 -996 -51 -227 -111 -456
-314 -575 -511 -159 -263 -249 -679 -203 -942 30 -171 81 -307 162 -432 128
-199 297 -344 504 -434 313 -136 662 -130 985 17 46 21 125 36 125 23 0 -3
-46 -27 -102 -54 -115 -54 -241 -92 -366 -111 -107 -15 -381 -6 -479 16 -397
88 -740 324 -942 649 -138 221 -210 449 -227 718 -7 119 18 333 66 553 116
538 480 984 1001 1228 103 48 321 120 404 133 373 58 674 37 973 -67 48 -17
96 -33 107 -36 29 -9 193 -92 240 -121 160 -100 220 -148 337 -265 70 -71 128
-132 128 -137 0 -5 6 -15 13 -22 18 -18 97 -134 97 -142 0 -4 11 -22 24 -39
65 -86 154 -340 187 -537 19 -111 16 -413 -5 -530 -136 -750 -756 -1349 -1593
-1539 -213 -49 -287 -56 -568 -56 -265 0 -350 7 -555 47 -466 89 -900 281
-1330 587 -224 160 -286 219 -507 488 -67 81 -214 305 -220 336 -3 15 -9 27
-14 27 -9 0 -47 68 -47 84 0 5 -5 12 -10 15 -9 6 -91 189 -130 291 -37 98
-100 331 -126 470 -37 198 -50 374 -43 600 7 218 15 282 56 485 16 77 34 207
41 289 36 467 168 962 380 1426 68 149 173 349 222 423 21 32 38 62 38 66 0 4
7 16 15 26 27 36 65 96 65 104 0 4 14 20 30 36 17 16 30 35 30 42 0 7 5 13 11
13 5 0 7 5 4 10 -3 6 1 13 9 16 9 3 14 10 11 14 -3 5 6 17 20 28 14 11 25 24
25 28 0 4 13 22 29 39 15 16 52 62 81 100 29 39 67 86 84 105 17 19 58 67 91
105 201 239 575 587 839 780 15 11 55 41 89 66 82 61 345 239 353 239 4 0 27
15 53 33 25 18 60 40 76 48 51 26 80 44 87 54 4 6 8 6 8 2 0 -5 12 1 26 12 15
12 32 21 39 21 7 0 18 7 26 16 7 9 22 14 36 11 12 -2 24 -1 25 2 3 7 146 91
154 91 2 0 32 13 67 29 34 16 91 41 127 55 l65 25 -1745 1 c-1110 0 -1750 -4
-1760 -10z m-146 -166 c3 -8 2 -12 -4 -9 -6 3 -10 10 -10 16 0 14 7 11 14 -7z
m4463 -6266 c-2 -13 -4 -5 -4 17 -1 22 1 32 4 23 2 -10 2 -28 0 -40z m-217
-679 c0 -6 -4 -7 -10 -4 -5 3 -10 11 -10 16 0 6 5 7 10 4 6 -3 10 -11 10 -16z"/>
<path d="M526 7948 c-31 -44 -11 -115 21 -73 15 21 18 81 4 90 -5 3 -17 -5
-25 -17z"/>
<path d="M580 7830 c0 -5 5 -10 10 -10 6 0 10 5 10 10 0 6 -4 10 -10 10 -5 0
-10 -4 -10 -10z"/>
<path d="M96 7395 c-25 -26 -19 -105 8 -105 20 0 38 43 34 80 -4 39 -19 48
-42 25z"/>
</g>
</svg>
